# xmcd
#
# Track frame offsets:
# 150
# 11742
# 25967
# 40160
# 50755
# 59571
# 71960
# 86028
# 97055
# 110921
# 119658
# 130156
#
# Disc length: 1925 seconds
#
#
# Revision: 0
# Processed by: cddbd v1.4PL0 Copyright (c) Steve Scherf et al.
# Submitted via: FreeRIP 2.00 
#
DISCID=bb07830c
DTITLE=Ray Charles - The Great Ray Charles Disc 2
DYEAR=1900
DGENRE=Blues
TTITLE0=Let The Good Times Roll
TTITLE1=Blues Is My Middle Name
TTITLE2=Walkin' and Talkin'
TTITLE3=Hey Now
TTITLE4=Goin'Away Blues
TTITLE5=You Wont Let Me Go
TTITLE6=Kiss Me Baby
TTITLE7=I Wonder Who's Kissing Her Know
TTITLE8=I'm Going Down to the River
TTITLE9=Easy Riding Gal
TTITLE10=All The Girls In Town
TTITLE11=This Love Of Mine
EXTD=
EXTT0=
EXTT1=
EXTT2=
EXTT3=
EXTT4=
EXTT5=
EXTT6=
EXTT7=
EXTT8=
EXTT9=
EXTT10=
EXTT11=
PLAYORDER=
